<?xml version="1.0" encoding="utf-8"?>
<!-- Generator: Adobe Illustrator 15.1.0, SVG Export Plug-In . SVG Version: 6.00 Build 0)  -->
<!DOCTYPE svg PUBLIC "-//W3C//DTD SVG 1.1//EN" "http://www.w3.org/Graphics/SVG/1.1/DTD/svg11.dtd">
<svg version="1.1" id="Layer_1" xmlns="http://www.w3.org/2000/svg" xmlns:xlink="http://www.w3.org/1999/xlink" x="0px" y="0px"
	 width="517px" height="447px" viewBox="0 0 517 447" enable-background="new 0 0 517 447" xml:space="preserve">
<path fill-rule="evenodd" clip-rule="evenodd" fill="#DE4543" d="M509.354,229.473c9.378-13.016,3.999-68.588,4-89
	c0-13.965-0.001-29.229,0-46c0-20.561,3.036-43.792-8-51c-7.959-5.197-28.939-3-45-3c-110.258,0-226.976,0-336,0
	c-4.704-12.713-1.495-28.273-12-36c-8.839-6.501-29.816-4-47-4c-29.932,0-57.333-1.371-64,15c0,0-2.333,8.296,5,18s52.8,4.593,78,7
	c14.518,69.999,63.796,280.515,65,297c0.845,11.565,10.806,17.288,23.13,18.216c-17.597,6.571-30.131,23.526-30.131,43.415
	c0,25.59,20.744,46.334,46.333,46.334s46.333-20.744,46.333-46.334c0-19.385-11.91-35.98-28.808-42.893
	c78.415-1.812,160.192-0.258,240.004-0.672c-17.808,6.461-30.53,23.526-30.53,43.565c0,25.59,20.744,46.334,46.333,46.334
	c25.59,0,46.334-20.744,46.334-46.334c0-19.568-12.138-36.293-29.291-43.083c14.167-1.395,24.942-6.155,25.291-19.547
	c0.661-25.394-33.152-21-60-21c-79.289,0-167.422,0-241,0c-18.833-0.704-23.504-10.919-25-19c-1.333-7.204-2.886-15.019-4-22
	c92.524-10.26,194.462-22.645,292-34C483.358,238.494,502.491,238.997,509.354,229.473z"/>
</svg>
